<?xml version="1.0" encoding="utf-8"?>
<!-- Generator: Adobe Illustrator 23.0.3, SVG Export Plug-In . SVG Version: 6.00 Build 0)  -->
<svg version="1.1" id="Capa_1" xmlns="http://www.w3.org/2000/svg" xmlns:xlink="http://www.w3.org/1999/xlink" x="0px" y="0px"
	 viewBox="0 0 512 496.8" style="enable-background:new 0 0 512 496.8;" xml:space="preserve">
<style type="text/css">
	.st0{fill:#274ABB;}
</style>
<title>icon-6</title>
<g>
	<g id="Capa_1-2">
		<g id="Layer_1">
			<path class="st0" d="M483.4,257.7H483V106.4c0-6.3-5.1-11.4-11.4-11.4h-60.1L366.7,6.2c-2.9-5.6-9.7-7.8-15.3-5L166,95H46.2
				C21.3,94.9,0.9,114.5,0,139.4v311.3c0,25.5,20.7,46.2,46.2,46.2h425.4c6.3,0,11.4-5.1,11.4-11.4v-87.9h0.4
				c15.8,0,28.6-12.8,28.6-28.6v-82.6C512,270.6,499.2,257.8,483.4,257.7z M460.2,117.7V162h-14.8l-22.4-44.2L460.2,117.7z
				 M173.8,116.5L173.8,116.5l177.6-89.8l42.9,84.8l0,0l25.5,50.5h-22.1c-0.1-0.4-0.3-0.8-0.5-1.2l-29.4-58c-2.3-4.5-7.3-7-12.3-6.1
				l-3.5,0.7c-13.4,2.5-27.1-3.5-34.2-15.1l-2.3-3.7c-3.1-5.1-9.6-6.9-14.9-4.2L127.5,162H84L173.8,116.5z M372.3,162H178l124-62.7
				c11.8,15,30.4,23,49.4,21.2L372.3,162z M46.2,117.8h74.7l-83.8,42.4c-6.5-2.8-11.3-8.3-13.3-15l-0.1-0.2
				c-0.1-0.4-0.2-0.9-0.3-1.3s-0.1-0.8-0.2-1.2s-0.1-0.6-0.1-0.9c-0.1-0.6-0.1-1.1-0.1-1.7C23.5,127.4,33.8,117.7,46.2,117.8z
				 M460.2,474h-414c-12.9,0-23.4-10.5-23.4-23.4v-5.3h348.5c6.3,0.2,11.6-4.8,11.7-11.1s-4.8-11.6-11.1-11.7H22.8v-244
				c4.6,2.7,9.7,4.6,15,5.5h0.7c0.7,0.1,1.3,0.2,2,0.3l0.4,0.1l0,0l1,0.1c0.5,0,0.9,0.1,1.4,0.1h0.3c0.9,0,1.7,0.1,2.5,0.1h414V210
				H108.7c-6.3-0.2-11.6,4.8-11.7,11.1c-0.2,6.3,4.8,11.6,11.1,11.7l0,0h352.2v25h-165c-6.3,0-11.4,5.1-11.4,11.4c0,0,0,0,0,0l0,0
				v117c0,6.3,5.1,11.4,11.4,11.4h165V474z M483.4,374.7H306.6v-94.2h176.8c3.2,0,5.8,2.6,5.8,5.8V369l0,0
				C489.2,372.2,486.6,374.8,483.4,374.7L483.4,374.7z"/>
			<path class="st0" d="M363.3,284.6c-23.8,0-43.1,19.3-43.1,43.1s19.3,43.1,43.1,43.1s43.1-19.3,43.1-43.1l0,0l0,0
				C406.3,303.9,387,284.6,363.3,284.6z M363.3,347.9c-11.2,0-20.3-9.1-20.3-20.2s9.1-20.3,20.2-20.3c11.2,0,20.3,9.1,20.3,20.2l0,0
				C383.5,338.8,374.5,347.9,363.3,347.9L363.3,347.9z"/>
			<path class="st0" d="M417.2,431.7c-0.1-0.7-0.4-1.4-0.6-2.1c-0.3-0.7-0.6-1.4-1-2c-0.4-0.6-0.9-1.2-1.4-1.7
				c-2.7-2.7-6.6-3.8-10.3-3.1c-0.7,0.1-1.4,0.3-2.1,0.6c-0.7,0.3-1.4,0.6-2,1c-0.6,0.4-1.2,0.9-1.7,1.4c-0.5,0.5-1,1.1-1.4,1.7
				c-0.4,0.6-0.8,1.3-1,2c-0.9,2.1-1.1,4.4-0.6,6.6c0.2,0.7,0.4,1.4,0.6,2.1c0.3,0.7,0.6,1.4,1,2c0.4,0.6,0.9,1.2,1.4,1.7
				c0.5,0.5,1.1,1,1.7,1.4c0.6,0.4,1.3,0.8,2,1c2.8,1.2,5.9,1.2,8.7,0c0.7-0.3,1.4-0.6,2-1c0.6-0.4,1.2-0.9,1.7-1.4
				c0.5-0.5,1-1.1,1.4-1.7c0.4-0.6,0.8-1.3,1-2c0.3-0.7,0.5-1.4,0.6-2.1c0.2-0.7,0.2-1.5,0.2-2.2
				C417.4,433.1,417.3,432.4,417.2,431.7z"/>
			<path class="st0" d="M85.2,219.2c-0.1-0.7-0.4-1.4-0.7-2.1c-0.3-0.7-0.6-1.4-1-2c-0.4-0.6-0.9-1.2-1.4-1.7
				c-0.5-0.5-1.1-1-1.7-1.4c-0.6-0.4-1.3-0.7-2-1c-0.7-0.3-1.4-0.5-2.1-0.6c-1.5-0.3-3-0.3-4.5,0c-0.7,0.1-1.4,0.4-2.1,0.6
				c-1.4,0.6-2.7,1.4-3.7,2.5c-3.2,3.3-4.2,8.2-2.5,12.4c0.3,0.7,0.6,1.4,1,2c0.4,0.6,0.9,1.2,1.4,1.7c0.5,0.5,1.1,1,1.7,1.4
				c0.6,0.4,1.3,0.8,2,1.1c2.1,0.9,4.4,1.1,6.6,0.6c0.7-0.2,1.4-0.4,2.1-0.6c1.4-0.6,2.6-1.4,3.7-2.5c1.1-1.1,1.9-2.3,2.5-3.7
				c0.3-0.7,0.5-1.4,0.7-2.1c0.1-0.7,0.2-1.5,0.2-2.2C85.4,220.7,85.3,219.9,85.2,219.2z"/>
		</g>
	</g>
</g>
</svg>
