<?xml version="1.0" encoding="utf-8"?>
<!-- Generator: Adobe Illustrator 23.0.3, SVG Export Plug-In . SVG Version: 6.00 Build 0)  -->
<svg version="1.1" id="Capa_1" xmlns="http://www.w3.org/2000/svg" xmlns:xlink="http://www.w3.org/1999/xlink" x="0px" y="0px"
	 viewBox="0 0 498 496" style="enable-background:new 0 0 498 496;" xml:space="preserve">
<style type="text/css">
	.st0{fill:#274ABB;}
</style>
<title>icon-4</title>
<path class="st0" d="M48,448h96v-80H48V448z M64,384h64v48H64V384z"/>
<path class="st0" d="M176,368v80h96v-80H176z M256,432h-64v-48h64V432z"/>
<path class="st0" d="M112,168V88c0-13.3-10.7-24-24-24H72c-13.3,0-24,10.7-24,24v80c0,13.3,10.7,24,24,24h16
	C101.3,192,112,181.3,112,168z M64,168V88c0-4.4,3.6-8,8-8h16c4.4,0,8,3.6,8,8v80c0,4.4-3.6,8-8,8H72C67.6,176,64,172.4,64,168z"/>
<path class="st0" d="M399.2,197.4c-8.9-7-21.5-7-30.4,0L355.9,208H223.3c0.4-2.6,0.6-5.3,0.7-8v-32h100.3l15.7-23.6l15.7,23.6h16.6
	l15.7-23.6l15.7,23.6h16.6l15.7-23.6l15.7,23.6H468l30-40l-30-40H224V56c0-30.9-25.1-56-56-56H56C25.1,0,0,25.1,0,56v144
	c0,21.6,12.6,41.3,32.1,50.4L0,276.2V336h16v160h464V310.5c12.4-4.3,19.1-17.8,14.8-30.2c-1.5-4.3-4.1-8-7.6-10.8L399.2,197.4z
	 M379,209.8c3-2.3,7.1-2.3,10.1,0l88,72c3.4,2.8,3.9,7.8,1.1,11.3c0,0,0,0,0,0l0,0c-2.8,3.3-7.8,3.8-11.3,1.2l-83-67.9l-82.9,67.8
	c-3.5,2.7-8.4,2.2-11.3-1.1c-2.8-3.4-2.3-8.4,1.1-11.2L379,209.8z M280.8,269.4c-10.2,8.4-11.8,23.5-3.4,33.8
	c2.8,3.3,6.4,5.8,10.6,7.1v9.7H16v-32h240v-16H30.8l60-48h245.5L280.8,269.4z M304,152h-80v-16h72c4.4,0,8,3.6,8,8V152z M460,104
	l18,24l-17.9,23.8L444.3,128h-16.6L412,151.6L396.3,128h-16.6L364,151.6L348.3,128h-16.6L320,145.6V144c0-13.3-10.7-24-24-24h-72
	v-16H460z M16,200V56c0-22.1,17.9-40,40-40h112c22.1,0,40,17.9,40,40v144c0,2.7-0.3,5.4-0.9,8H85.2l-38.5,30.8
	C28.7,234.5,16,218.5,16,200z M32,336h256v144H32V336z M432,480h-16v-96h-64v96h-16v-80c0-26.5,21.5-48,48-48s48,21.5,48,48V480z
	 M400,480h-32v-80h32V480z M448,480v-80c0-35.3-28.7-64-64-64s-64,28.7-64,64v80h-16V310.4c2.6-0.8,5-2.1,7.2-3.8L384,247l72.8,59.6
	c2.2,1.7,4.6,3.1,7.2,4V480H448z"/>
</svg>
