<?xml version="1.0" encoding="utf-8"?>
<!-- Generator: Adobe Illustrator 23.0.3, SVG Export Plug-In . SVG Version: 6.00 Build 0)  -->
<svg version="1.1" id="Capa_1" xmlns="http://www.w3.org/2000/svg" xmlns:xlink="http://www.w3.org/1999/xlink" x="0px" y="0px"
	 viewBox="0 0 512 512" style="enable-background:new 0 0 512 512;" xml:space="preserve">
<style type="text/css">
	.st0{fill:#274ABB;}
</style>
<title>icon-5</title>
<g id="Capa_1-2">
	<g id="Layer_1">
		<path class="st0" d="M136.4,235.4c0,4.5,1.8,8.9,5,12.1l6,6c16.7,16.6,43.7,16.6,60.3,0l42.5-42.5c16.8,14.1,38.1,21.8,60,21.7
			l0,0c24.9,0,48.9-9.9,66.4-27.6c3.3-3.3,3.3-8.7,0-12.1s-8.7-3.3-12.1,0c-14.4,14.5-34,22.6-54.4,22.6l0,0
			c-20.4,0.1-39.9-8-54.3-22.5c-3.3-3.3-8.7-3.3-12.1,0l-48.3,48.3c-9.7,9.7-26.5,9.7-36.2,0l-6-6l102.6-102.6
			c9.6-9.6,18.6-9.6,30.2-9.6c12.3,0,27.7,0,42.2-14.6l24.1-24.1c3.3-3.3,3.3-8.7,0-12.1c-3.3-3.3-8.7-3.3-12.1,0l0,0l-24.1,24.1
			c-9.6,9.6-18.7,9.6-30.2,9.6c-12.3,0-27.7,0-42.2,14.6L141.4,223.4C138.2,226.5,136.4,230.9,136.4,235.4z"/>
		<path class="st0" d="M76.8,93.9c9.4,0,17.1-7.6,17.1-17.1s-7.6-17.1-17.1-17.1c-9.4,0-17.1,7.6-17.1,17.1l0,0l0,0
			C59.7,86.2,67.4,93.9,76.8,93.9z"/>
		<path class="st0" d="M159.5,120.8l24.1,24.1c3.3,3.3,8.7,3.3,12.1,0c3.3-3.3,3.3-8.7,0-12.1l-24.1-24.1c-3.3-3.3-8.7-3.3-12.1,0
			S156.2,117.4,159.5,120.8L159.5,120.8L159.5,120.8z"/>
		<path class="st0" d="M435.2,59.7c9.4,0,17.1-7.6,17.1-17.1s-7.6-17.1-17.1-17.1c-9.4,0-17.1,7.6-17.1,17.1l0,0
			C418.1,52.1,425.8,59.7,435.2,59.7z"/>
		<path class="st0" d="M454.8,181.7c-13.9,13.9-18.6,36.5-23.2,58.3c-4.1,19.4-8.3,39.5-18.6,49.7l-12.1,12.1
			c-3.3,3.3-3.3,8.8,0,12.1s8.8,3.3,12.1,0l12-12.1c13.9-13.9,18.6-36.4,23.2-58.3c4.1-19.4,8.3-39.5,18.6-49.8
			c3.3-3.3,3.3-8.7,0-12.1C463.5,178.4,458.1,178.4,454.8,181.7L454.8,181.7L454.8,181.7L454.8,181.7z"/>
		<path class="st0" d="M509.5,181.7l-139-139l28.1-28.1c3.2-3.4,3.1-8.9-0.4-12.1c-3.3-3.1-8.4-3.1-11.7,0l-34.1,34.1
			c-3.3,3.3-3.3,8.7,0,12l0,0l145.1,145.1c3.3,3.3,8.7,3.3,12.1,0C512.8,190.4,512.8,185,509.5,181.7L509.5,181.7z"/>
		<path class="st0" d="M316.4,253.5c-3.3-3.3-8.7-3.3-12.1,0s-3.3,8.7,0,12.1l90.5,90.5c6.6,6.7,6.5,17.5-0.2,24.1
			c-6.6,6.5-17.3,6.5-24,0l-90.5-90.5c-3.3-3.3-8.7-3.3-12.1,0c-3.3,3.3-3.3,8.7,0,12.1l0,0l114.6,114.7c6.6,6.7,6.5,17.5-0.2,24.1
			c-6.6,6.6-17.3,6.6-24,0L250,332c-2.8-3.8-8.2-4.5-11.9-1.7c-3.8,2.8-4.5,8.2-1.7,11.9c0.2,0.3,0.4,0.5,0.7,0.8
			c0.3,0.4,0.6,0.7,1,1l96.5,96.5c6.6,6.7,6.6,17.5,0,24.1c-6.7,6.5-17.4,6.5-24.1,0l-12.1-12.1l0,0l-78.5-78.4
			c-3.4-3.3-8.8-3.1-12.1,0.3c-3.1,3.3-3.1,8.5,0,11.8l78.4,78.4c6.7,6.7,6.7,17.5,0,24.1s-17.5,6.7-24.1,0l0,0L117,343.9
			c-22.1-22.1-26.9-50-31.2-74.6c-3.6-20.7-6.9-40.3-20-53.4c-3.3-3.3-8.7-3.4-12.1,0c-3.3,3.3-3.4,8.7,0,12.1l0,0
			c9.3,9.3,12,25.4,15.3,44.2c4.4,25.8,10,57.9,35.9,83.8l145.1,145c13.3,13.3,35,13.3,48.3,0c4.8-4.8,8-10.8,9.3-17.5
			c13.1,6.1,28.6,3.4,38.9-6.6c4.8-4.8,8.1-10.9,9.4-17.5c17,8.2,37.4,1,45.6-16c6.3-13.1,3.6-28.7-6.6-38.9l-3.2-3.2
			c18.2-4.9,29-23.6,24.2-41.8c-1.5-5.8-4.6-11.1-8.9-15.4L316.4,253.5z"/>
		<path class="st0" d="M159.6,70.8l-51.2-51.2c-3.4-3.3-8.8-3.1-12.1,0.3c-3.1,3.3-3.1,8.5,0,11.8l45.2,45.2l-139,139
			c-3.5,3.2-3.8,8.6-0.6,12s8.6,3.8,12,0.6c0.2-0.2,0.4-0.4,0.6-0.6l0,0L159.6,82.8C162.9,79.5,162.9,74.2,159.6,70.8L159.6,70.8z"
			/>
		<path class="st0" d="M209.9,493.4c-4.8,2.5-12.9,2.8-20.2-4.5s-7.3-15.8-4.9-19.5c2.6-4,1.4-9.2-2.5-11.8
			c-3.4-2.2-7.9-1.7-10.7,1.2c-6.7,6.6-17.5,6.5-24.1-0.2c-6.6-6.6-6.6-17.3,0-24c3.3-3.3,3.3-8.7,0-12.1c-3.3-3.3-8.7-3.3-12.1,0
			l0,0l0,0l-6,6c-6.7,6.7-17.5,6.7-24.1,0c-6.7-6.7-6.7-17.5,0-24.1l0,0l6-6c3.3-3.4,3.2-8.8-0.2-12.1c-2.7-2.6-6.8-3.2-10-1.4
			c-4.6,2.7-12.8,2.4-19.9-4.7c-7.5-7.5-7.4-15.8-5-19.3c2.9-3.7,2.2-9.1-1.5-12c-3.7-2.8-9-2.2-11.9,1.4c-0.2,0.3-0.4,0.6-0.6,0.9
			c-6.9,10-6.7,27.3,7,41c4.7,4.9,10.6,8.4,17.1,10.2c-7.7,17.2,0,37.4,17.2,45.1c7,3.1,14.8,3.8,22.2,2c1.6,18.8,18.1,32.7,36.9,31
			c1.4-0.1,2.8-0.3,4.1-0.6c1.3,8,5.2,15.3,11,20.9c7.9,7.9,17.1,11,25.5,11c5.1,0,10.1-1.2,14.6-3.5c4.2-2.2,5.7-7.4,3.5-11.5
			C219.2,492.8,214.1,491.2,209.9,493.4L209.9,493.4z"/>
	</g>
</g>
</svg>
