<svg xmlns="http://www.w3.org/2000/svg" viewBox="0 0 463 386.65"><defs><style>.cls-1{fill:#fff;}</style></defs><title>icon-9</title><g id="Capa_2" data-name="Capa 2"><g id="Capa_1-2" data-name="Capa 1"><path class="cls-1" d="M450.86,153A7.5,7.5,0,0,0,463,147.15v-40a7.48,7.48,0,0,0-2.86-5.89L338,5.06a23.41,23.41,0,0,0-29.08,0L263,41.27V27.15a7.5,7.5,0,0,0-7.5-7.5h-32a7.5,7.5,0,0,0-7.5,7.5V78.3l-29.14,23a7.48,7.48,0,0,0-2.86,5.89v40A7.5,7.5,0,0,0,196.14,153l3.86-3v73.09L130,168A23.41,23.41,0,0,0,101,168L2.86,245.26A7.48,7.48,0,0,0,0,251.15v40A7.5,7.5,0,0,0,12.14,297L16,294v77.65H7.5a7.5,7.5,0,0,0,0,15h448a7.5,7.5,0,0,0,0-15H447V150l3.86,3ZM231,34.65h17V53.09L231,66.48Zm-32,76.14L318.24,16.84a8.47,8.47,0,0,1,10.52,0l119.24,94v20.9L328.14,37.26a7.49,7.49,0,0,0-9.28,0L199,131.69Zm-184,144,95.24-75a8.47,8.47,0,0,1,10.52,0L200,242.18v20.91l-79.86-62.92a7.48,7.48,0,0,0-9.28,0L15,275.69v-20.9Zm16,27.39,84.5-66.57L200,282.18v89.47H167v-88.5a7.5,7.5,0,0,0-7.5-7.5h-88a7.5,7.5,0,0,0-7.5,7.5v88.5H31V282.18Zm48,40.47h73v17H79Zm73-15H79v-17h73Zm-73,47h73v17H79Zm217-39-.5,0a7.5,7.5,0,0,0,0,15,4.19,4.19,0,0,0,.5,0v41H263v-97h33Zm136,56H311V267.15a7.5,7.5,0,0,0-7.5-7.5h-48a7.5,7.5,0,0,0-7.5,7.5v104.5H215V138.18L323.5,52.7,432,138.18Z"/><path class="cls-1" d="M343.5,338.65h48a7.5,7.5,0,0,0,7.5-7.5v-64a7.5,7.5,0,0,0-7.5-7.5h-48a7.5,7.5,0,0,0-7.5,7.5v64A7.5,7.5,0,0,0,343.5,338.65Zm7.5-15v-25h33v25Zm33-49v9H351v-9Z"/><path class="cls-1" d="M343.5,226.65h48a7.5,7.5,0,0,0,7.5-7.5v-64a7.5,7.5,0,0,0-7.5-7.5h-48a7.5,7.5,0,0,0-7.5,7.5v64A7.5,7.5,0,0,0,343.5,226.65Zm7.5-15v-25h33v25Zm33-49v9H351v-9Z"/><path class="cls-1" d="M303.5,147.65h-48a7.5,7.5,0,0,0-7.5,7.5v64a7.5,7.5,0,0,0,7.5,7.5h48a7.5,7.5,0,0,0,7.5-7.5v-64a7.5,7.5,0,0,0-7.5-7.5Zm-7.5,15v9H263v-9Zm-33,49v-25h33v25Z"/></g></g></svg>