<svg xmlns="http://www.w3.org/2000/svg" viewBox="0 0 496 496"><defs><style>.cls-1{fill:#fff;}</style></defs><title>icon-8</title><g id="Capa_2" data-name="Capa 2"><g id="Layer_3" data-name="Layer 3"><path class="cls-1" d="M56,128h48a8,8,0,0,0,8-8V72a8,8,0,0,0-8-8H56a8,8,0,0,0-8,8v48A8,8,0,0,0,56,128Zm8-48H96v32H64Z"/><path class="cls-1" d="M136,128h48a8,8,0,0,0,8-8V72a8,8,0,0,0-8-8H136a8,8,0,0,0-8,8v48A8,8,0,0,0,136,128Zm8-48h32v32H144Z"/><path class="cls-1" d="M56,208h48a8,8,0,0,0,8-8V152a8,8,0,0,0-8-8H56a8,8,0,0,0-8,8v48A8,8,0,0,0,56,208Zm8-48H96v32H64Z"/><path class="cls-1" d="M136,208h48a8,8,0,0,0,8-8V152a8,8,0,0,0-8-8H136a8,8,0,0,0-8,8v48A8,8,0,0,0,136,208Zm8-48h32v32H144Z"/><path class="cls-1" d="M56,288h48a8,8,0,0,0,8-8V232a8,8,0,0,0-8-8H56a8,8,0,0,0-8,8v48A8,8,0,0,0,56,288Zm8-48H96v32H64Z"/><path class="cls-1" d="M136,288h48a8,8,0,0,0,8-8V232a8,8,0,0,0-8-8H136a8,8,0,0,0-8,8v48A8,8,0,0,0,136,288Zm8-48h32v32H144Z"/><path class="cls-1" d="M104,368a8,8,0,0,0,8-8V312a8,8,0,0,0-8-8H56a8,8,0,0,0-8,8v48a8,8,0,0,0,8,8ZM64,320H96v32H64Z"/><path class="cls-1" d="M136,368h48a8,8,0,0,0,8-8V312a8,8,0,0,0-8-8H136a8,8,0,0,0-8,8v48A8,8,0,0,0,136,368Zm8-48h32v32H144Z"/><path class="cls-1" d="M312,128h48a8,8,0,0,0,8-8V72a8,8,0,0,0-8-8H312a8,8,0,0,0-8,8v48A8,8,0,0,0,312,128Zm8-48h32v32H320Z"/><path class="cls-1" d="M392,128h48a8,8,0,0,0,8-8V72a8,8,0,0,0-8-8H392a8,8,0,0,0-8,8v48A8,8,0,0,0,392,128Zm8-48h32v32H400Z"/><path class="cls-1" d="M312,208h48a8,8,0,0,0,8-8V152a8,8,0,0,0-8-8H312a8,8,0,0,0-8,8v48A8,8,0,0,0,312,208Zm8-48h32v32H320Z"/><path class="cls-1" d="M392,208h48a8,8,0,0,0,8-8V152a8,8,0,0,0-8-8H392a8,8,0,0,0-8,8v48A8,8,0,0,0,392,208Zm8-48h32v32H400Z"/><path class="cls-1" d="M312,288h48a8,8,0,0,0,8-8V232a8,8,0,0,0-8-8H312a8,8,0,0,0-8,8v48A8,8,0,0,0,312,288Zm8-48h32v32H320Z"/><path class="cls-1" d="M392,288h48a8,8,0,0,0,8-8V232a8,8,0,0,0-8-8H392a8,8,0,0,0-8,8v48A8,8,0,0,0,392,288Zm8-48h32v32H400Z"/><path class="cls-1" d="M312,368h48a8,8,0,0,0,8-8V312a8,8,0,0,0-8-8H312a8,8,0,0,0-8,8v48A8,8,0,0,0,312,368Zm8-48h32v32H320Z"/><path class="cls-1" d="M392,368h48a8,8,0,0,0,8-8V312a8,8,0,0,0-8-8H392a8,8,0,0,0-8,8v48A8,8,0,0,0,392,368Zm8-48h32v32H400Z"/><path class="cls-1" d="M488,48a8,8,0,0,0,8-8V8a8,8,0,0,0-8-8H264a8,8,0,0,0-8,8V40a8,8,0,0,0,8,8h8V80H224V48h8a8,8,0,0,0,8-8V8a8,8,0,0,0-8-8H8A8,8,0,0,0,0,8V40a8,8,0,0,0,8,8h8V448H8a8,8,0,0,0-8,8v32a8,8,0,0,0,8,8H488a8,8,0,0,0,8-8V456a8,8,0,0,0-8-8h-8V48ZM272,16H480V32H272ZM224,448V368h48v80Zm0-320h48v32H224Zm0,48h48v16H224Zm0,32h48v32H224Zm0,48h48v16H224Zm0,32h48v32H224Zm0,48h48v16H224ZM272,96v16H224V96ZM16,16H224V32H16ZM32,48H208V448H160V424a40,40,0,0,0-80,0v24H32ZM144,448H96V424a24,24,0,0,1,48,0Zm336,32H16V464H480Zm-80-32H352V424a24,24,0,0,1,48,0Zm64,0H416V424a40,40,0,0,0-80,0v24H288V48H464Z"/></g></g></svg>