<svg xmlns="http://www.w3.org/2000/svg" viewBox="0 0 496 496.01"><defs><style>.cls-1{fill:#fff;}</style></defs><title>icon-10</title><g id="Capa_2" data-name="Capa 2"><g id="Capa_1-2" data-name="Capa 1"><path class="cls-1" d="M256,424a8,8,0,0,0-8,8v16a8,8,0,0,0,16,0V432A8,8,0,0,0,256,424Z"/><path class="cls-1" d="M96,424a8,8,0,0,0-8,8v16a8,8,0,0,0,16,0V432A8,8,0,0,0,96,424Z"/><path class="cls-1" d="M493,209.76l-80-64a8,8,0,0,0-10,0l-67,53.6V104a8,8,0,0,0-3-6.25l-80-64a8,8,0,0,0-10,0L212.8,57.92a35.65,35.65,0,0,0-21.35-9.75,56,56,0,0,0-102-23.23A48,48,0,1,0,80,120h80v79.35l-67-53.6a8,8,0,0,0-10,0l-80,64A8,8,0,0,0,0,216V488a8,8,0,0,0,8,8H488a8,8,0,0,0,8-8V216A8,8,0,0,0,493,209.76ZM48,480H16v-8H48Zm64,0H64V400h48Zm48,0H128v-8h32Zm0-24H128V392a8,8,0,0,0-8-8H56a8,8,0,0,0-8,8v64H16V259.86l72-57.6,72,57.59Zm0-216.64L93,185.76a8,8,0,0,0-10,0l-67,53.6v-19.5l72-57.6,72,57.6ZM160,104H80a32,32,0,1,1,10.58-62.2,8,8,0,0,0,9.77-3.92,40,40,0,0,1,75.65,18c0,.14,0,.28,0,.43a8,8,0,0,0,8,8,8.89,8.89,0,0,0,1.15-.08A19.56,19.56,0,0,1,188,64a19.9,19.9,0,0,1,12.1,4.08L163,97.76A8,8,0,0,0,160,104Zm48,376H176v-8h32Zm64,0H224V400h48Zm48,0H288v-8h32Zm0-24H288V392a8,8,0,0,0-8-8H216a8,8,0,0,0-8,8v64H176V147.85l72-57.59,72,57.59Zm0-328.64L253,73.76a8,8,0,0,0-10,0l-67,53.61V107.85l72-57.59,72,57.59ZM368,480H336v-8h32Zm64,0H384V400h48Zm48,0H448v-8h32Zm0-24H448V392a8,8,0,0,0-8-8H376a8,8,0,0,0-8,8v64H336V259.85l72-57.59,72,57.59Zm0-216.64-67-53.61a8,8,0,0,0-10,0l-67,53.61V219.86l72-57.6,72,57.6Z"/><path class="cls-1" d="M304,200H288V152a8,8,0,0,0-8-8H216a8,8,0,0,0-8,8v48H192a8,8,0,0,0-8,8v24a8,8,0,0,0,8,8H304a8,8,0,0,0,8-8V208A8,8,0,0,0,304,200Zm-80-40h48v8H224Zm0,24h48v16H224Zm72,40H200v-8h96Z"/><path class="cls-1" d="M304,312H288V264a8,8,0,0,0-8-8H216a8,8,0,0,0-8,8v48H192a8,8,0,0,0-8,8v24a8,8,0,0,0,8,8H304a8,8,0,0,0,8-8V320A8,8,0,0,0,304,312Zm-80-40h48v8H224Zm0,24h48v16H224Zm72,40H200v-8h96Z"/><path class="cls-1" d="M144,328H128V280a8,8,0,0,0-8-8H56a8,8,0,0,0-8,8v48H32a8,8,0,0,0-8,8v24a8,8,0,0,0,8,8H144a8,8,0,0,0,8-8V336A8,8,0,0,0,144,328ZM64,288h48v8H64Zm0,24h48v16H64Zm72,40H40v-8h96Z"/><path class="cls-1" d="M464,328H448V280a8,8,0,0,0-8-8H376a8,8,0,0,0-8,8v48H352a8,8,0,0,0-8,8v24a8,8,0,0,0,8,8H464a8,8,0,0,0,8-8V336A8,8,0,0,0,464,328Zm-80-40h48v8H384Zm0,24h48v16H384Zm72,40H360v-8h96Z"/><path class="cls-1" d="M416,424a8,8,0,0,0-8,8v16a8,8,0,0,0,16,0V432A8,8,0,0,0,416,424Z"/></g></g></svg>