<svg xmlns="http://www.w3.org/2000/svg" viewBox="0 0 496 495.91"><defs><style>.cls-1{fill:#fff;}</style></defs><title>icon-11</title><g id="Capa_2" data-name="Capa 2"><g id="Layer_5" data-name="Layer 5"><path class="cls-1" d="M384,87.91H320v48h64Zm-16,32H336v-16h32Z"/><path class="cls-1" d="M496,327.91l-33.44-168H432V110.55l18,12.87a23.83,23.83,0,0,0,14,4.49,24.07,24.07,0,0,0,19.54-10,24,24,0,0,0-5.59-33.47l-112-80a24.36,24.36,0,0,0-27.88,0l-112,80a24,24,0,0,0-5.59,33.49c7.42,10.37,23.1,13,33.47,5.56L272,110.54v49.37H195.11L184,150c-8.81-7.86-23.14-7.84-31.91,0L8.06,278A24,24,0,1,0,40,313.85l8-7.15V495.91H480v-112h16Zm-46.56-152L480,328.71v7.2H288V306.7l8.05,7.15c9.52,8.47,25.43,7.52,33.89-2a24,24,0,0,0-2-33.88l-33.83-30.08H432v-72Zm-81.44,56H336v-64h32ZM244.65,110.42a8.25,8.25,0,0,1-11.16-1.85,8,8,0,0,1-1.39-6,7.86,7.86,0,0,1,3.25-5.19l112-80a8.14,8.14,0,0,1,9.29,0l112,80a8,8,0,0,1,1.85,11.12,8.17,8.17,0,0,1-11.17,1.86L352,33.75ZM352,53.4l64,45.72V231.91H384v-80H320v80H288V99.11ZM272,175.91v52.35l-58.89-52.35ZM29.32,301.9a8.21,8.21,0,0,1-11.3-.67,8,8,0,0,1,.67-11.29l144-128a8,8,0,0,1,10.64,0l144,128a8,8,0,0,1,.65,11.3,8.23,8.23,0,0,1-11.3.66L168,178.63ZM168,200l104,92.44v27.44H208v-64H128v64H64V292.47Zm24,119.88H144v-48h48Zm-128,16H272v144H176v-96H80v96H64Zm96,144H96v-80h64Zm304,0H288v-96H464Zm-176-112v-16H480v16Z"/><path class="cls-1" d="M256,351.91H192v64h64Zm-16,48H208v-32h32Z"/><path class="cls-1" d="M368,463.91v-64H304v64Zm-48-48h32v32H320Z"/><path class="cls-1" d="M448,399.91H384v64h64Zm-16,48H400v-32h32Z"/></g></g></svg>