<svg xmlns="http://www.w3.org/2000/svg" viewBox="0 0 60 58.37"><defs><style>.cls-1{fill:#fff;}</style></defs><title>icon-7</title><g id="Capa_2" data-name="Capa 2"><g id="Capa_1-2" data-name="Capa 1"><path class="cls-1" d="M14,35.36H28v-10H14Zm2-2v-3H26v3Zm10-6v1H16v-1Z"/><path class="cls-1" d="M14,39.36v12H28v-12Zm6,2v3H16v-3Zm-4,5h4v3H16Zm6,3v-3h4v3Zm4-5H22v-3h4Z"/><path class="cls-1" d="M32,35.36H46v-10H32Zm2-2v-1H44v1Zm10-6v3H34v-3Z"/><path class="cls-1" d="M59,47.36a1,1,0,0,0-1,1v1H57v-1a1,1,0,0,0-2,0v1H54V29.16a4,4,0,0,0,1.63.36,4,4,0,0,0,2.92-1.28,4,4,0,0,0-.46-5.87L32.72,2.53,30,0,27.34,2.47,1.91,22.37a4,4,0,0,0-.46,5.87A4,4,0,0,0,6,29.16V49.37H5v-1a1,1,0,0,0-2,0v1H2v-1a1,1,0,0,0-2,0v9a1,1,0,0,0,2,0v-1H3v1a1,1,0,0,0,2,0v-1H6v2H54v-2h1v1a1,1,0,1,0,2,0v-1h1v1a1,1,0,1,0,2,0v-9A1,1,0,0,0,59,47.36ZM2.91,26.88a2,2,0,0,1-.53-1.52,2,2,0,0,1,.77-1.42L28.64,4,30,2.73l1.42,1.32L56.85,23.94a2,2,0,0,1,.77,1.42,2,2,0,0,1-.53,1.52,2,2,0,0,1-2.69.22l-.4-.31h0L30,8.29,6.39,26.49h0l-.79.61A2,2,0,0,1,2.91,26.88ZM2,54.36v-3H3v3Zm3,0v-3H6v3Zm29,2v-15H44v15Zm18,0H46v-17H32v17H8V27.77l22-17,22,17Zm2-2v-3h1v3Zm3,0v-3h1v3Z"/></g></g></svg>